<?xml version="1.0" ?><svg id="Layer_1" style="enable-background:new 0 0 96 96;" version="1.1" viewBox="0 0 96 96" xml:space="preserve" xmlns="http://www.w3.org/2000/svg" xmlns:xlink="http://www.w3.org/1999/xlink"><style type="text/css">
	.st0{fill-rule:evenodd;clip-rule:evenodd;fill:#5C6061;}
	.st1{fill-rule:evenodd;clip-rule:evenodd;fill:#5ABFC7;}
	.st2{fill-rule:evenodd;clip-rule:evenodd;fill:#2B2D2D;}
	.st3{fill-rule:evenodd;clip-rule:evenodd;fill:#D1D3D4;}
	.st4{fill-rule:evenodd;clip-rule:evenodd;fill:#43B64B;}
</style><g id="XMLID_2_"><path class="st0" d="M26.9,0h48c2.2,0,4,1.8,4,4v88c0,2.2-1.8,4-4,4h-48c-2.2,0-4-1.8-4-4V4C22.9,1.8,24.7,0,26.9,0   L26.9,0z M26.9,12v72h48V12H26.9z" id="XMLID_14_"/><rect class="st1" height="72" id="XMLID_13_" width="48" x="26.9" y="12"/><path class="st2" d="M44.9,4h12c1.1,0,2,0.9,2,2v0c0,1.1-0.9,2-2,2h-12c-1.1,0-2-0.9-2-2v0C42.9,4.9,43.8,4,44.9,4z   " id="XMLID_12_"/><path class="st2" d="M34.9,8c1.1,0,2-0.9,2-2c0-1.1-0.9-2-2-2c-1.1,0-2,0.9-2,2C32.9,7.1,33.8,8,34.9,8z" id="XMLID_11_"/><path class="st2" d="M46.9,88h8c1.1,0,2,0.9,2,2v0c0,1.1-0.9,2-2,2h-8c-1.1,0-2-0.9-2-2v0   C44.9,88.9,45.8,88,46.9,88z" id="XMLID_10_"/><path class="st3" d="M57.5,66h8.4c3.9,0,7,3.1,7,7v7H50.5v-7C50.5,69.1,53.6,66,57.5,66L57.5,66z M61.7,52   c3.3,0,6,2.7,6,6c0,3.3-2.7,6-6,6c-3.3,0-6-2.7-6-6C55.7,54.7,58.4,52,61.7,52z" id="XMLID_7_"/><path class="st3" d="M47.7,44.3c2.7-3.2,4-7.1,4-11.1c0-9.5-7.7-17.3-17.3-17.3c-9.5,0-17.3,7.7-17.3,17.3   c0,9.5,7.7,17.3,17.3,17.3c2.9,0,5.6-0.7,8-2l10.5,5.7L47.7,44.3z" id="XMLID_6_"/><path class="st4" d="M25.2,41.5l1.7-5c-0.8-1.4-1.3-3.1-1.3-4.8c0-5.2,4.2-9.4,9.4-9.4c5.2,0,9.4,4.2,9.4,9.4   c0,5.2-4.2,9.4-9.4,9.4c-1.6,0-3.1-0.4-4.4-1.1L25.2,41.5L25.2,41.5z M41,34.9c-0.4-0.8-2-1.8-2-1.8c-0.4-0.2-0.8-0.2-1,0.1   c0,0-0.5,0.6-0.7,0.7c-0.6,0.4-1.2,0.4-1.7-0.2l-1.3-1.3l-1.3-1.3c-0.6-0.6-0.6-1.1-0.2-1.7c0.1-0.1,0.7-0.7,0.7-0.7   c0.4-0.2,0.3-0.6,0.1-1c0,0-0.9-1.6-1.8-2c-0.4-0.2-0.8-0.1-1.1,0.2l-0.6,0.6c-1.8,1.8-0.9,3.9,0.9,5.8l1.7,1.7l1.7,1.7   c1.8,1.8,3.9,2.8,5.8,0.9l0.6-0.6C41.1,35.7,41.2,35.3,41,34.9z" id="XMLID_3_"/></g></svg>